# xmcd CD database file
#
# Track frame offsets:
#	150
#	18105
#	33057
#	49530
#	63687
#	78680
#	100060
#	116277
#	132327
#	151147
#	164235
#	180235
#
# Disc length: 2585 seconds
#
# Revision: 0
# Processed by: cddbd v1.5.1PL2 Copyright (c) Steve Scherf et al.
# Submitted via: CDex 1.51
#
DISCID=8d0a170c
DTITLE=Alabama - Lady down on love
DYEAR=2005
DGENRE=Country
TTITLE0=Lady down on love
TTITLE1=Love in the first degree
TTITLE2=Mountain music
TTITLE3=Southern star
TTITLE4=Reckless
TTITLE5=Dancin', Shaggin' On the boulevard
TTITLE6=Feels so right
TTITLE7=Close enough to perfect
TTITLE8=She ain't your ordinary girl
TTITLE9=Gonna have a party
TTITLE10=Sad lookin' moon
TTITLE11=Green river
EXTD=YEAR: 2005
EXTT0=
EXTT1=
EXTT2=
EXTT3=
EXTT4=
EXTT5=
EXTT6=
EXTT7=
EXTT8=
EXTT9=
EXTT10=
EXTT11=
PLAYORDER=
